<?xml version="1.0" standalone="no"?>
<!DOCTYPE svg PUBLIC "-//W3C//DTD SVG 20010904//EN"
 "http://www.w3.org/TR/2001/REC-SVG-20010904/DTD/svg10.dtd">
<svg version="1.0" xmlns="http://www.w3.org/2000/svg"
 width="225.000000pt" height="225.000000pt" viewBox="0 0 225.000000 225.000000"
 preserveAspectRatio="xMidYMid meet">
<metadata>
Created by potrace 1.14, written by Peter Selinger 2001-2017
</metadata>
<g transform="translate(0.000000,225.000000) scale(0.100000,-0.100000)"
fill="#000000" stroke="none">
<path d="M0 2207 c0 -43 0 -43 47 -55 92 -25 249 -92 328 -141 112 -68 184
-147 219 -237 35 -94 49 -112 73 -98 52 31 4 151 -107 268 -79 83 -164 143
-296 209 -50 25 -105 57 -121 71 -25 21 -41 26 -87 26 l-56 0 0 -43z"/>
<path d="M900 2248 c0 -2 7 -34 15 -73 7 -38 19 -128 25 -200 5 -71 13 -151
16 -177 l6 -48 48 0 c52 0 279 -36 317 -51 23 -8 23 -9 -19 -48 l-43 -39 -65
14 c-129 27 -237 9 -329 -54 -55 -37 -127 -123 -150 -181 -15 -35 -23 -38 -42
-14 -20 23 -73 43 -116 43 -84 -1 -170 -70 -206 -166 -29 -80 -42 -218 -28
-323 33 -261 175 -431 451 -542 84 -34 87 -34 240 -34 125 0 175 4 258 23 140
31 318 94 426 150 96 49 212 148 239 203 l15 32 7 -31 c21 -100 -86 -218 -291
-321 -128 -63 -170 -78 -351 -116 -92 -19 -201 -42 -241 -51 -78 -17 -130 -51
-158 -105 -18 -37 -18 -89 2 -117 l15 -22 655 0 654 0 0 1125 0 1125 -675 0
c-371 0 -675 -1 -675 -2z m764 -602 c57 -33 92 -75 130 -156 26 -55 31 -77 31
-145 0 -92 -20 -141 -79 -193 -65 -57 -182 -71 -234 -27 -28 23 -30 29 -34
123 -6 119 -33 187 -108 269 -27 30 -50 58 -50 63 0 17 71 70 107 79 21 5 47
12 58 15 46 12 135 -2 179 -28z m-447 -96 c121 -60 191 -172 180 -291 -15
-166 -150 -301 -316 -316 -49 -5 -66 -1 -115 23 -33 16 -76 48 -98 74 -129
145 -132 327 -6 452 100 101 225 121 355 58z m713 -95 c59 -30 78 -56 86 -116
8 -66 -26 -127 -89 -158 -26 -13 -50 -22 -52 -19 -2 2 5 33 16 68 23 71 21
134 -5 208 -9 23 -13 42 -10 42 2 0 27 -11 54 -25z m-216 -421 c19 -51 -7
-191 -46 -247 -19 -27 -169 -107 -200 -107 -13 0 -12 7 6 43 17 34 21 60 21
142 0 55 -3 115 -7 133 l-7 32 82 1 c45 0 91 4 102 9 30 13 42 12 49 -6z
m-258 -139 c11 -140 -23 -207 -131 -255 -70 -32 -199 -63 -225 -55 -31 10 -39
55 -29 166 4 56 12 106 16 110 5 3 42 14 84 23 76 17 154 56 228 115 l36 29 7
-26 c5 -15 11 -63 14 -107z"/>
<path d="M1476 1544 c-37 -37 -3 -104 53 -104 32 0 61 22 61 46 0 22 -55 74
-79 74 -11 0 -27 -7 -35 -16z"/>
<path d="M1122 1428 c-39 -39 10 -118 72 -118 67 0 86 51 37 101 -32 31 -86
40 -109 17z"/>
<path d="M32 1543 l-32 -4 0 -770 0 -769 383 0 384 0 37 79 c25 53 36 91 34
112 -3 32 -6 34 -95 65 -51 17 -128 51 -170 75 -99 56 -236 191 -280 274 -129
248 -123 596 13 732 24 24 44 50 44 57 0 21 -105 115 -152 136 -41 19 -89 22
-166 13z"/>
</g>
</svg>
